<mxfile host="app.diagrams.net" agent="Mozilla/5.0 (Windows NT 10.0; Win64; x64) AppleWebKit/537.36 (KHTML, like Gecko) Chrome/138.0.0.0 Safari/537.36" version="28.0.5">
  <diagram name="Page-1" id="26DJyRm1WkgPv-NCfy0x">
    <mxGraphModel dx="698" dy="378" grid="1" gridSize="10" guides="1" tooltips="1" connect="1" arrows="1" fold="1" page="1" pageScale="1" pageWidth="850" pageHeight="1100" math="0" shadow="0">
      <root>
        <mxCell id="0" />
        <mxCell id="1" parent="0" />
        <mxCell id="ydfvACzYGLD5ImMSjkko-1" value="User Uploads Files" style="whiteSpace=wrap;strokeWidth=2;" vertex="1" parent="1">
          <mxGeometry x="55" y="20" width="191" height="54" as="geometry" />
        </mxCell>
        <mxCell id="ydfvACzYGLD5ImMSjkko-2" value="Document Loaders" style="whiteSpace=wrap;strokeWidth=2;" vertex="1" parent="1">
          <mxGeometry x="54" y="124" width="192" height="54" as="geometry" />
        </mxCell>
        <mxCell id="ydfvACzYGLD5ImMSjkko-3" value="Document Splitter" style="whiteSpace=wrap;strokeWidth=2;" vertex="1" parent="1">
          <mxGeometry x="55" y="228" width="191" height="54" as="geometry" />
        </mxCell>
        <mxCell id="ydfvACzYGLD5ImMSjkko-4" value="Embeddings - Ollama Embeddings" style="whiteSpace=wrap;strokeWidth=2;" vertex="1" parent="1">
          <mxGeometry x="20" y="332" width="260" height="78" as="geometry" />
        </mxCell>
        <mxCell id="ydfvACzYGLD5ImMSjkko-5" value="Vector Store - FAISS" style="whiteSpace=wrap;strokeWidth=2;" vertex="1" parent="1">
          <mxGeometry x="50" y="460" width="200" height="54" as="geometry" />
        </mxCell>
        <mxCell id="ydfvACzYGLD5ImMSjkko-6" value="Retriever" style="whiteSpace=wrap;strokeWidth=2;" vertex="1" parent="1">
          <mxGeometry x="87" y="564" width="126" height="54" as="geometry" />
        </mxCell>
        <mxCell id="ydfvACzYGLD5ImMSjkko-7" value="Prompt Template - ChatPromptTemplate" style="whiteSpace=wrap;strokeWidth=2;" vertex="1" parent="1">
          <mxGeometry x="20" y="668" width="260" height="78" as="geometry" />
        </mxCell>
        <mxCell id="ydfvACzYGLD5ImMSjkko-8" value="LLM - ChatOllama" style="whiteSpace=wrap;strokeWidth=2;" vertex="1" parent="1">
          <mxGeometry x="57" y="796" width="186" height="54" as="geometry" />
        </mxCell>
        <mxCell id="ydfvACzYGLD5ImMSjkko-9" value="Answer to User" style="whiteSpace=wrap;strokeWidth=2;" vertex="1" parent="1">
          <mxGeometry x="66" y="900" width="168" height="54" as="geometry" />
        </mxCell>
        <mxCell id="ydfvACzYGLD5ImMSjkko-10" value="" style="curved=1;startArrow=none;endArrow=block;exitX=0.5;exitY=1;entryX=0.5;entryY=0;rounded=0;" edge="1" parent="1" source="ydfvACzYGLD5ImMSjkko-1" target="ydfvACzYGLD5ImMSjkko-2">
          <mxGeometry relative="1" as="geometry">
            <Array as="points" />
          </mxGeometry>
        </mxCell>
        <mxCell id="ydfvACzYGLD5ImMSjkko-11" value="" style="curved=1;startArrow=none;endArrow=block;exitX=0.5;exitY=1;entryX=0.5;entryY=0;rounded=0;" edge="1" parent="1" source="ydfvACzYGLD5ImMSjkko-2" target="ydfvACzYGLD5ImMSjkko-3">
          <mxGeometry relative="1" as="geometry">
            <Array as="points" />
          </mxGeometry>
        </mxCell>
        <mxCell id="ydfvACzYGLD5ImMSjkko-12" value="" style="curved=1;startArrow=none;endArrow=block;exitX=0.5;exitY=1;entryX=0.5;entryY=0;rounded=0;" edge="1" parent="1" source="ydfvACzYGLD5ImMSjkko-3" target="ydfvACzYGLD5ImMSjkko-4">
          <mxGeometry relative="1" as="geometry">
            <Array as="points" />
          </mxGeometry>
        </mxCell>
        <mxCell id="ydfvACzYGLD5ImMSjkko-13" value="" style="curved=1;startArrow=none;endArrow=block;exitX=0.5;exitY=1;entryX=0.5;entryY=0;rounded=0;" edge="1" parent="1" source="ydfvACzYGLD5ImMSjkko-4" target="ydfvACzYGLD5ImMSjkko-5">
          <mxGeometry relative="1" as="geometry">
            <Array as="points" />
          </mxGeometry>
        </mxCell>
        <mxCell id="ydfvACzYGLD5ImMSjkko-14" value="" style="curved=1;startArrow=none;endArrow=block;exitX=0.5;exitY=1;entryX=0.5;entryY=0;rounded=0;" edge="1" parent="1" source="ydfvACzYGLD5ImMSjkko-5" target="ydfvACzYGLD5ImMSjkko-6">
          <mxGeometry relative="1" as="geometry">
            <Array as="points" />
          </mxGeometry>
        </mxCell>
        <mxCell id="ydfvACzYGLD5ImMSjkko-15" value="" style="curved=1;startArrow=none;endArrow=block;exitX=0.5;exitY=1;entryX=0.5;entryY=0;rounded=0;" edge="1" parent="1" source="ydfvACzYGLD5ImMSjkko-6" target="ydfvACzYGLD5ImMSjkko-7">
          <mxGeometry relative="1" as="geometry">
            <Array as="points" />
          </mxGeometry>
        </mxCell>
        <mxCell id="ydfvACzYGLD5ImMSjkko-16" value="" style="curved=1;startArrow=none;endArrow=block;exitX=0.5;exitY=1;entryX=0.5;entryY=0;rounded=0;" edge="1" parent="1" source="ydfvACzYGLD5ImMSjkko-7" target="ydfvACzYGLD5ImMSjkko-8">
          <mxGeometry relative="1" as="geometry">
            <Array as="points" />
          </mxGeometry>
        </mxCell>
        <mxCell id="ydfvACzYGLD5ImMSjkko-17" value="" style="curved=1;startArrow=none;endArrow=block;exitX=0.5;exitY=1;entryX=0.5;entryY=0;rounded=0;" edge="1" parent="1" source="ydfvACzYGLD5ImMSjkko-8" target="ydfvACzYGLD5ImMSjkko-9">
          <mxGeometry relative="1" as="geometry">
            <Array as="points" />
          </mxGeometry>
        </mxCell>
      </root>
    </mxGraphModel>
  </diagram>
</mxfile>
